<svg width="180" height="88" viewBox="0 0 180 88" xmlns="http://www.w3.org/2000/svg"><title>Page 1</title><g fill="none" fill-rule="evenodd"><path d="M8.856 5.467L.262 34.836h5.827l1.593-5.79h8.51l1.552 5.79h5.827L15.103 5.467H8.856zM12 12.591l2.977 11.497h-6.08L12 12.591zM26.42 40.043h5.744V10.674H26.42zM46.606 5.76c-2.6 0-4.821 1-4.821 5.04v.833c0 3.874 2.306 4.957 4.82 4.957h2.851V5.76h-2.85zm2.85 23.869v-7.582H46.48l-3.94 7.582H36.25l4.947-8.915c-3.144-1.416-5.115-4.457-5.115-8.998v-.833c0-6.832 3.94-10.623 9.81-10.623H55.2V29.63h-5.744zM75.825 11.008h-10.69v6.665h7.923v5h-7.923v6.664h10.69v5.499H59.391V5.468h16.434zM95.046 44.469h-15.47V15.1h5.744v23.87h9.726z" fill="#FFE900"/><path fill="#FFE900" d="M89.365 29.337h9.726V5.467h5.743v29.369h-15.47zM125.281 5.8h-10.69v6.666h7.923v5h-7.923v6.664h10.69v5.499h-16.433V.26h16.433zM46.174 66.088c2.222 0 4.234-.541 4.234-3.416v-.458c0-2.5-2.012-3.166-4.024-3.166h-3.521v7.04h3.311zm.21-11.497c1.886 0 3.731-.625 3.731-3.333V50.8c0-2.54-2.054-3.124-4.234-3.124h-3.018v6.915h3.521zm-9.265-12.414h8.972c5.785 0 9.726 2.583 9.726 7.998v.417c0 3.166-1.384 5.207-3.69 6.207 2.474 1.083 3.983 3.082 3.983 6.332v.375c0 5.415-3.94 8.04-9.726 8.04h-9.265V42.177zM59.861 47.384h16.434v29.369H59.86v-5.499h10.69v-6.665h-7.923v-5h7.923v-6.665h-10.69zM79.585 60.673c0-5.374 3.815-8.623 9.6-8.623 5.66 0 9.558 3.79 9.558 9.83h-5.66c0-3.123-1.508-4.582-3.982-4.582-2.431 0-3.815 1.167-3.815 3.375 0 5.832 13.835 2.374 13.835 12.872 0 5.582-3.983 8.915-9.936 8.915-5.91 0-9.977-3.874-9.977-10.165h5.701c0 3.416 1.76 4.832 4.276 4.832 2.432 0 4.193-1.124 4.193-3.54 0-5.583-13.793-2.5-13.793-12.914M101.97 65.88c0-5.374 3.816-8.623 9.601-8.623 5.66 0 9.558 3.79 9.558 9.83h-5.66c0-3.123-1.508-4.582-3.982-4.582-2.431 0-3.815 1.167-3.815 3.375 0 5.832 13.835 2.374 13.835 12.872 0 5.582-3.983 8.915-9.936 8.915-5.91 0-9.978-3.874-9.978-10.165h5.702c0 3.416 1.76 4.832 4.276 4.832 2.431 0 4.192-1.124 4.192-3.54 0-5.583-13.792-2.5-13.792-12.914M135.445 71.274h10.48c3.313 0 4.528-1.916 4.528-4.082 0-2-1.09-4.04-4.486-4.04h-10.48c-3.312 0-4.486 1.915-4.486 4.04 0 1.958 1.048 4.082 4.444 4.082m.21-13.83h10.06c6.038 0 10.272 4 10.272 9.748 0 5.749-4.234 9.79-10.271 9.79h-10.061c-5.995 0-10.187-4.041-10.187-9.79 0-5.749 4.192-9.748 10.187-9.748M179.986 79.356h-5.408l-8.636-16.996v16.996H160.2V49.988h5.408l8.594 17.08V50.07h5.785z"/></g></svg>