<svg width="180" height="100" viewBox="0 0 180 100" xmlns="http://www.w3.org/2000/svg"><title>Page 1</title><g fill="#FFE900" fill-rule="evenodd"><path d="M15.983 17.582c0-4.955-2.407-5.956-4.718-5.956-2.263 0-4.67 1.24-4.67 5.098v11.913c0 3.954 2.407 5.145 4.67 5.145 3.081 0 4.718-1.477 4.718-6.384v-.43h6.595c0 8.577-3.658 13.104-11.313 13.104C4.622 40.072 0 35.307 0 28.446V16.915C0 10.1 4.622 5.337 11.265 5.337c7.51 0 11.313 4.907 11.313 12.722h-6.595v-.477zM41.112 12.293h-6.98l3.417 13.151 3.563-13.15zm-8.377-5.67h9.773L44.338 0h6.69L41.16 33.592h-7.173L24.262 0h6.692l1.781 6.623zM76.784 39.548h-6.21l-9.918-19.44v19.44h-6.595V5.956h6.21l9.87 19.536V6.052h6.643zM94.884 21.18c-4.574 0-5.537 3.096-5.537 6.718v6.528c0 6.575 2.36 7.814 5.537 7.814h3.707V21.18h-3.707zm-.77 27.302c-6.692 0-11.314-4.336-11.314-12.436v-8.863c0-8.196 4.622-12.293 11.314-12.293h11.072v33.592H94.114zM117.076 27.445l-9.484-21.489h6.885l5.921 14.2 6.018-14.2h6.836l-9.58 21.49v12.102h-6.596zM38.185 57.215v21.06h3.706c3.178 0 5.537-1.239 5.537-7.814v-6.528c0-3.621-.963-6.718-5.537-6.718h-3.706zm-6.596 27.302V50.925h11.073c6.691 0 11.313 4.098 11.313 12.293v8.863c0 8.1-4.622 12.436-11.313 12.436H31.589zM74.772 56.88h6.595v22.49c0 7.148-4.67 11.58-11.313 11.58-6.644 0-11.265-4.384-11.265-11.58V56.88h6.595V79.61c0 3.716 2.118 5.098 4.67 5.098 2.455 0 4.718-1.382 4.718-5.098V56.881zM104.666 100H86.902V66.408h6.596V93.71h11.168z"/><path d="M116.894 61.131H105.34v7.624h8.425v5.718h-8.425V88.29h-6.596V54.794h18.15zM125.312 66.418v12.15h7.703v-9.005h5.777v9.005h7.703v-12.15h6.355v18.678h-33.94V66.418zM164.643 65.25V77.64h3.273c2.889 0 5.537-1.24 5.537-5.67v-.953c0-4.622-2.552-5.766-5.537-5.766h-3.273zm-6.596 27.303V58.96h10.688c6.74 0 11.265 4.336 11.265 12.15v.953c0 5.194-2.263 8.672-5.873 10.292l5.68 10.197h-7.22l-4.526-8.672h-3.418v8.672h-6.596z"/></g></svg>