<svg width="180" height="84" viewBox="0 0 180 84" xmlns="http://www.w3.org/2000/svg"><title>Page 1</title><g fill="#FFE900" fill-rule="evenodd"><path d="M15.058 11.63c0-4.706-2.268-5.656-4.445-5.656-2.132 0-4.4 1.176-4.4 4.842v11.313c0 3.756 2.268 4.887 4.4 4.887 2.903 0 4.445-1.402 4.445-6.063v-.408h6.213c0 8.146-3.446 12.445-10.658 12.445C4.354 32.99 0 28.464 0 21.948V10.997C0 4.526 4.354 0 10.613 0 17.689 0 21.27 4.661 21.27 12.083h-6.213v-.453zM30.886 36.27l-8.935-20.409h6.486l5.58 13.486 5.668-13.486h6.441L37.1 36.271v11.494h-6.214zM60.321 16.178c-2.812 0-5.216 1.086-5.216 5.476v.905c0 4.208 2.495 5.385 5.216 5.385h3.084V16.178h-3.084zm3.084 25.93v-8.236h-3.22l-4.264 8.236h-6.803l5.352-9.684c-3.402-1.538-5.533-4.842-5.533-9.775v-.905c0-7.421 4.263-11.54 10.613-11.54h10.069v31.904h-6.214zM74.38 42.108h6.214V10.204h-6.213zM101.57 51.442H84.835V19.538h6.214v25.93h10.523z"/><path d="M111.027 42.108H94.291V10.204h6.214v25.931h10.522zM132.298 10.567h-11.565v7.24h8.572v5.43h-8.572v7.241h11.565v5.974h-17.78V4.548h17.78zM52.042 72.291h6.577l-3.22-12.49-3.357 12.49zm7.892 5.386h-9.207l-1.723 6.29h-6.305l9.298-31.904h6.758l9.162 31.904h-6.305l-1.678-6.29zM71.158 71.115h31.976v-6.2H71.158zM113.746 66.092v17.875h-6.213V52.063h6.168l7.075 17.694 7.076-17.694h6.168v31.904h-6.213V66l-4.944 11.993h-4.218zM139.734 46.407h17.78V78.31h-17.78v-5.973h11.565v-7.24h-8.572v-5.431h8.572v-7.24h-11.565zM179.918 58.082h-11.566v7.24h8.572v5.431h-8.572v7.24h11.566v5.974h-17.78V52.063h17.78zM145.292 43.523l2.857-7.105h6.395l-4.717 7.105z"/></g></svg>