<svg id="Layer_1" xmlns="http://www.w3.org/2000/svg" viewBox="0 0 180 130"><style>.st0{fill:#fff}</style><path class="st0" d="M82 42.8v10.1C82 64.2 74.5 72 63.6 72c-10.7 0-18.2-7.8-18.2-19.1v-19c0-11.3 7.5-19.2 18.2-19.2S81.7 22.5 82 33.5H71.2c0-5.9-3-8.3-7.5-8.3-4.8 0-7.7 2.5-7.7 9.9v18.2c0 5.7 2.9 8.3 7.5 8.3 4 0 7.7-2.2 7.7-8.3v-.9h-7.6v-9.5H82zm6.6-4.7V19.3C88.6 7.9 96.1 0 106.9 0s18.4 7.9 18.4 19.3v18.9c0 11.2-7.6 19.1-18.4 19.1-10.8 0-18.3-7.9-18.3-19.2zm26 .4V18.9c0-6.2-3.6-8.5-7.7-8.5-3.8 0-7.6 2-7.6 8.4v19.7c0 6.2 3.6 8.4 7.6 8.4 3.7 0 7.7-2 7.7-8.4zM0 102.1h7.8c5 0 8.5 2.3 8.5 7v.4c0 2.8-1.2 4.5-3.2 5.4 2.2.9 3.5 2.7 3.5 5.5v.3c0 4.7-3.4 7-8.5 7H0v-25.6zm8.1 10.8c1.6 0 3.2-.5 3.2-2.9v-.4c0-2.2-1.8-2.7-3.7-2.7H5v6h3.1zM7.9 123c1.9 0 3.7-.5 3.7-3v-.4c0-2.2-1.8-2.8-3.5-2.8H5v6.1h2.9zm16.6-20.4h7.4l1.4-5.1h5.1l-7.5 25.6h-5.4l-7.4-25.6h5.1l1.3 5.1zm6.3 4.3h-5.3l2.6 10 2.7-10zm21.3-.5c0-3.8-1.8-4.5-3.6-4.5-1.7 0-3.5.9-3.5 3.9v9.1c0 3 1.8 3.9 3.5 3.9 2.3 0 3.6-1.1 3.6-4.9v-.3h5c0 6.5-2.8 10-8.6 10-5 0-8.5-3.6-8.5-8.9v-8.8c0-5.2 3.5-8.8 8.5-8.8 5.7 0 8.6 3.7 8.6 9.7h-5v-.4zm8 12.2h5.6l5.1-10.7h1.9v10.7h5V93h-5v10.5h-1.9L65.7 93h-5.6l6.4 12.7-6.4 12.9zm20.9-14c0-4.7 3.3-7.5 8.4-7.5 4.9 0 8.3 3.3 8.3 8.6h-4.9c0-2.7-1.3-4-3.5-4-2.1 0-3.3 1-3.3 2.9 0 5.1 12 2.1 12 11.2 0 4.9-3.5 7.8-8.7 7.8-5.1 0-8.7-3.4-8.7-8.9h5c0 3 1.5 4.2 3.7 4.2 2.1 0 3.7-1 3.7-3.1 0-4.8-12-2.1-12-11.2zm34.4 4.6h-5.3V130h-5v-20.8h-5.3v-4.8h15.6v4.8zm12.2 8.9h-7.4l-1.4 5.1h-5.1l7.5-25.6h5.4l7.4 25.6h-5l-1.4-5.1zm-6.3-4.3h5.3l-2.6-10-2.7 10zm27.2-12h4.7c5.3 0 8.9 3.5 8.9 8.5s-3.6 8.5-8.9 8.5h-8.8c-5.3 0-8.9-3.5-8.9-8.5s3.6-8.4 8.7-8.5v5c-2.7 0-3.9 1.4-3.9 3.5 0 2.2 1.2 3.6 4.6 3.6h8.5c2.6 0 3.9-1.3 3.9-3.5 0-1.9-1-3.6-3.9-3.6h-.4v3.5h-4.4v-8.5zm31.5.6h-9.3v5.8h6.9v4.4h-6.9v5.8h9.3v4.8h-14.3V97.5H180v4.9z"/></svg>