<svg width="180" height="86" viewBox="0 0 180 86" xmlns="http://www.w3.org/2000/svg"><title>Page 1</title><g fill="#FFE900" fill-rule="evenodd"><path d="M0 38.855h5.542V10.358H0zM22.106 38.612V31.78h-3.398c-1.942 0-3.883.647-3.883 3.072v.444c0 2.79 1.941 3.315 4.085 3.315h3.196zm0-11.156v-6.71h-2.913c-2.103 0-4.085.566-4.085 3.031v.445c0 2.627 1.78 3.234 3.6 3.234h3.398zm5.541 16.451h-8.939c-5.582 0-9.385-2.546-9.385-7.801v-.364c0-3.153 1.457-5.093 3.843-6.144-2.225-.97-3.56-2.95-3.56-6.023v-.404c0-5.255 3.803-7.76 9.385-7.76h8.656v28.496zM37.314 15.693v10.51h2.75c2.428 0 4.653-1.051 4.653-4.81v-.809c0-3.92-2.144-4.89-4.652-4.89h-2.75zm-5.541 23.162V10.358h8.98c5.663 0 9.465 3.678 9.465 10.307v.809c0 4.405-1.901 7.356-4.935 8.73l4.773 8.65h-6.067l-3.803-7.356h-2.872v7.357h-5.541zM63.162 26.89l2.871-11.156h-5.865l2.994 11.156zm5.541-21.585h5.623l-8.171 28.497h-6.027L51.835 5.305h5.623l1.537 5.619h8.211l1.497-5.619zM74.406 20.887V15.35h28.517v5.537H91.071v7.438h11.852v5.538H74.406v-5.538h11.811v-7.438zM106.927 28.75h5.542V.253h-5.542zM123.309 22.888v15.967h-5.542V10.358h5.502l6.31 15.804 6.31-15.804h5.501v28.497h-5.541V22.808l-4.41 10.711h-3.761zM37.303 64.572v15.966H31.76V52.04h5.501l6.31 15.805 6.31-15.805h5.502v28.497h-5.542V64.49l-4.409 10.711h-3.762zM66.385 65.057h5.865L69.38 53.9l-2.994 11.157zm7.039 4.81h-8.212l-1.537 5.618h-5.623l8.293-28.496h6.027l8.17 28.496H74.92l-1.496-5.618zM90.776 52.365H84.91l2.872 11.156 2.993-11.156zm-7.038-4.81h8.211l1.537-5.619h5.623l-8.293 28.497H84.79l-8.17-28.497h5.622l1.497 5.618zM114.56 85.59H99.634V57.093h5.541v23.162h9.385zM118.473 65.117h10.113c3.195 0 4.368-1.86 4.368-3.961 0-1.94-1.051-3.92-4.328-3.92h-10.113c-3.195 0-4.328 1.858-4.328 3.92 0 1.9 1.012 3.961 4.288 3.961m.203-13.42h9.707c5.825 0 9.91 3.88 9.91 9.459 0 5.578-4.085 9.499-9.91 9.499h-9.707c-5.785 0-9.83-3.92-9.83-9.5 0-5.577 4.045-9.457 9.83-9.457M155.383 44.462h5.542v19.079c0 6.063-3.924 9.822-9.506 9.822-5.582 0-9.466-3.718-9.466-9.822V44.462h5.542v19.281c0 3.153 1.78 4.325 3.924 4.325 2.063 0 3.964-1.172 3.964-4.325v-19.28zM164.564 39.41h15.25v28.416h-5.542V56.104h-7.079v-4.85h7.08v-6.468h-9.709z"/></g></svg>