<svg width="180" height="80" viewBox="0 0 180 80" xmlns="http://www.w3.org/2000/svg"><title>Page 1</title><g fill="#FFE900" fill-rule="evenodd"><path d="M18.437 9.088v19.104c0 5.817-3.655 9.815-9.239 9.815C3.655 38.007 0 34.01 0 28.192V26.94h5.503v1.454c0 3.393 1.968 4.282 3.695 4.282 2.491 0 3.736-1.212 3.736-6.22V9.088h5.503zM36.392 4.039h5.503v19.064c0 6.059-3.897 9.815-9.44 9.815-5.543 0-9.4-3.716-9.4-9.815V4.039h5.504v19.266c0 3.15 1.767 4.322 3.896 4.322 2.049 0 3.937-1.171 3.937-4.322V4.04zM65.473 37.563H60.29l-8.275-16.48v16.48h-5.503V9.088h5.182l8.234 16.56V9.168h5.544zM79.088 28.03v4.888h-3.896v.485c0 3.15 1.888 4.28 3.937 4.28 2.37 0 3.856-1.372 3.856-4.28v-9.371c0-3.797-1.487-5.09-3.937-5.09-2.33 0-3.856 1.253-3.856 4.282h-5.503c.12-5.654 3.936-9.613 9.44-9.613 5.503 0 9.359 4.04 9.359 9.856V33.2c0 5.817-3.856 9.815-9.36 9.815-5.583 0-9.439-3.998-9.439-9.815v-5.17h9.4zM107.527 37.563H92.704V9.088h5.504v23.144h9.319z"/><path d="M117.83 5.372h-10.243v6.462h7.591v4.847h-7.591v6.463h10.243v5.331h-15.746V0h15.746zM147.974 32.272c2.129 0 4.057-.525 4.057-3.312v-.445c0-2.423-1.928-3.07-3.856-3.07H144.8v6.827h3.173zm.2-11.148c1.808 0 3.576-.606 3.576-3.231v-.445c0-2.463-1.968-3.029-4.057-3.029H144.8v6.705h3.374zm-8.876-12.036h8.596c5.543 0 9.319 2.504 9.319 7.755v.404c0 3.07-1.326 5.048-3.535 6.018 2.37 1.05 3.816 2.989 3.816 6.14v.363c0 5.25-3.776 7.795-9.32 7.795h-8.876V9.088zM166.29 39.926l-7.913-18.217h5.744l4.941 12.037 5.021-12.037h5.704l-7.993 18.217v10.259h-5.504zM36.6 46.02h5.544V62.5l8.234-16.56h5.182v28.474h-5.503V57.935l-8.275 16.48h-5.181zM59.164 62.944h28.319V57.41h-28.32zM109.624 64.882v5.17c0 5.816-3.856 9.815-9.44 9.815-5.502 0-9.358-3.999-9.358-9.815v-9.734c0-5.816 3.856-9.855 9.359-9.855s9.319 3.958 9.44 9.613h-5.503c0-3.03-1.527-4.282-3.857-4.282-2.45 0-3.936 1.293-3.936 5.09v9.37c0 2.908 1.486 4.281 3.856 4.281 2.049 0 3.937-1.13 3.937-4.28v-.485h-3.897v-4.888h9.4zM119.344 66.841h-5.503V38.366h5.503V50.2h7.391V38.366h5.503v28.475h-5.503V55.047h-7.39zM152.844 51.311h-5.864v23.103h-5.503V51.311h-5.825V45.94h17.192z"/></g></svg>