<svg width="180" height="92" viewBox="0 0 180 92" xmlns="http://www.w3.org/2000/svg"><title>Sabrina Starke</title><g fill="#FFE900" fill-rule="evenodd"><path d="M.382 21.575c0-5.428 3.866-8.71 9.728-8.71 5.735 0 9.685 3.829 9.685 9.93H14.06c0-3.156-1.529-4.629-4.035-4.629-2.464 0-3.865 1.179-3.865 3.409 0 5.89 14.017 2.398 14.017 13.001 0 5.638-4.035 9.004-10.067 9.004C4.12 43.58 0 39.667 0 33.314h5.777c0 3.45 1.784 4.88 4.333 4.88 2.464 0 4.248-1.135 4.248-3.576 0-5.638-13.976-2.524-13.976-13.043M36.489 24.267h-6.16l3.016 11.613 3.144-11.613zm-7.392-5.007h8.623l1.615-5.848h5.904l-8.708 29.663h-6.33l-8.58-29.663h5.905l1.571 5.848zM57.09 42.823c2.251 0 4.29-.547 4.29-3.45v-.463c0-2.525-2.039-3.198-4.078-3.198h-3.568v7.11h3.356zm.212-11.613c1.912 0 3.78-.631 3.78-3.366v-.463c0-2.567-2.08-3.156-4.29-3.156h-3.058v6.985h3.568zm-9.387-12.539h9.09c5.862 0 9.855 2.609 9.855 8.079v.42c0 3.198-1.402 5.26-3.738 6.27 2.506 1.094 4.036 3.114 4.036 6.396v.378c0 5.47-3.994 8.12-9.856 8.12h-9.387V18.672zM77.31 18.966v10.94h2.888c2.548 0 4.885-1.094 4.885-5.007v-.842c0-4.081-2.252-5.091-4.885-5.091h-2.889zm-5.82 24.11V13.412h9.43c5.947 0 9.94 3.829 9.94 10.73v.84c0 4.587-1.997 7.659-5.182 9.089l5.012 9.005h-6.372l-3.993-7.658H77.31v7.658h-5.82zM95.32 29.927h5.82V.263h-5.82zM106.703 8.236h5.863v17.167l8.708-17.25h5.48v29.663h-5.82V20.649l-8.75 17.167h-5.48zM138.264 32.22h6.16l-3.017-11.613-3.143 11.613zm7.391 5.007h-8.623l-1.614 5.848h-5.905l8.709-29.663h6.329l8.58 29.663h-5.904l-1.572-5.848zM59.445 62.598c0-5.428 3.866-8.71 9.728-8.71 5.735 0 9.685 3.829 9.685 9.93h-5.735c0-3.155-1.529-4.628-4.035-4.628-2.464 0-3.866 1.178-3.866 3.408 0 5.89 14.018 2.398 14.018 13.002 0 5.638-4.035 9.004-10.067 9.004-5.99 0-10.11-3.913-10.11-10.267h5.777c0 3.45 1.784 4.881 4.333 4.881 2.463 0 4.248-1.136 4.248-3.576 0-5.639-13.976-2.525-13.976-13.044M96.847 54.772h-6.202v24.067h-5.82V54.772h-6.159v-5.596h18.181zM99.438 81.132h6.16L102.58 69.52l-3.143 11.613zm7.391 5.008h-8.623l-1.614 5.848h-5.905l8.708-29.664h6.33l8.58 29.664h-5.904l-1.572-5.848zM122.8 59.99v10.94h2.889c2.548 0 4.885-1.095 4.885-5.008v-.841c0-4.082-2.251-5.092-4.885-5.092H122.8zm-5.82 24.11V54.434h9.431c5.947 0 9.94 3.829 9.94 10.73v.841c0 4.586-1.997 7.658-5.182 9.088l5.012 9.005h-6.372l-3.993-7.658H122.8V84.1h-5.82zM145.377 61.273l-7.433-14.727h6.541l5.905 12.202h2.166V46.546h5.82V76.21h-5.82V63.882h-2.166l-5.905 12.328h-6.541zM179.826 62.66h-10.832v6.733h8.029v5.05h-8.029v6.732h10.832v5.554h-16.651V57.065h16.651z"/></g></svg>