<svg width="180" height="94" viewBox="0 0 180 94" xmlns="http://www.w3.org/2000/svg"><title>Page 1</title><g fill="#FFE900" fill-rule="evenodd"><path d="M0 21.917v20.236h5.97v-7.055h29.158v-6.126H5.97v-7.055zM37.673 49.695h6.12V14.82h-6.12zM63.894 32.8v8.892c0 4.94-3.334 8.398-8.16 8.398-4.777 0-8.11-3.458-8.11-8.398V22.921c0-4.99 3.333-8.447 8.11-8.447 4.727 0 8.06 3.359 8.16 8.2h-6.12c0-2.075-1.095-2.322-2.04-2.322-.945 0-1.99.247-1.99 2.322V41.89c0 2.075 1.144 2.322 1.99 2.322.896 0 2.04-.247 2.04-2.322v-3.804h-1.99V32.8h8.11zM76.382 29.415c-1.343 0-2.836.396-2.836 3.31v8.101c0 2.964 1.592 3.31 2.836 3.31h1.095v-14.72h-1.095zm1.095 28.997v-8.496h-1.294l-2.239 8.496h-6.617l3.283-10.225c-1.99-1.482-3.134-4.001-3.134-7.509v-8.002c0-5.879 3.334-9.139 8.11-9.139h8.06v34.875h-6.17zM93 24.1h3.483l-1.691-13.189L93 24.101zm4.23 5.188h-5.026l-.945 5.878h-6.12L91.458.29h6.568l6.22 34.875h-6.12l-.896-5.878zM122.754 49.695h-5.822l-4.428-16.796v16.796h-6.17V14.82h5.822l4.428 17.338V14.82h6.17zM21.83 93.282h-6.169V58.407h6.17V72.88h3.781V58.407h6.12v34.875h-6.12V78.215h-3.781zM41.683 82.217h3.483l-1.692-13.19-1.79 13.19zm4.23 5.187h-5.026l-.945 5.878h-6.12l6.319-34.875h6.568l6.219 34.875h-6.12l-.896-5.878zM69.392 71.818H54.068v-6.076h35.127v6.076L68.198 75.82l20.997 4.05v6.076H54.068V79.87h15.424l-10.498-2.025v-4.05zM98.196 82.217h3.483l-1.691-13.19-1.792 13.19zm4.23 5.187H97.4l-.945 5.878h-6.12l6.319-34.875h6.568l6.22 34.875h-6.12l-.896-5.878zM110.038 85.576h6.02c0 1.877 1.145 2.322 2.04 2.322.947 0 1.842-.544 1.842-1.779 0-.84-.547-2.075-1.443-3.408l-6.02-8.843c-2.389-3.556-2.787-5.581-2.787-8.15 0-4.693 3.433-7.657 8.31-7.657 4.875 0 8.358 3.36 8.358 8.348h-6.12c0-2.025-1.293-2.42-2.338-2.42-.995 0-2.09.543-2.09 1.877 0 1.086.2 1.778 1.543 3.754l6.02 8.941c2.388 3.557 2.687 5.681 2.687 7.706 0 4.496-3.334 7.41-8.06 7.41-4.628 0-7.962-3.31-7.962-8.101M131.981 66.6l-6.12-22.722h6.319l2.886 12.942L138 43.878h6.27L138.1 66.6v12.152h-6.12zM149.993 82.217h3.483l-1.692-13.19-1.791 13.19zm4.229 5.187h-5.025l-.945 5.878h-6.12l6.318-34.875h6.568l6.22 34.875h-6.12l-.896-5.878zM179.746 93.282h-5.821l-4.429-16.796v16.796h-6.17V58.407h5.822l4.428 17.338V58.407h6.17z"/></g></svg>